<mxfile host="app.diagrams.net" modified="2021-03-24T12:45:14.487Z" agent="5.0 (X11; Linux x86_64) AppleWebKit/537.36 (KHTML, like Gecko) Chrome/89.0.4389.90 Safari/537.36" etag="xP_2LAtZuT2HwCw3sy8w" version="14.5.1" type="github">
  <diagram id="C5RBs43oDa-KdzZeNtuy" name="Page-1">
    <mxGraphModel dx="875" dy="433" grid="1" gridSize="10" guides="1" tooltips="1" connect="1" arrows="1" fold="1" page="1" pageScale="1" pageWidth="827" pageHeight="1169" math="0" shadow="0">
      <root>
        <mxCell id="WIyWlLk6GJQsqaUBKTNV-0" />
        <mxCell id="WIyWlLk6GJQsqaUBKTNV-1" parent="WIyWlLk6GJQsqaUBKTNV-0" />
        <mxCell id="GaWV32QuYPtfHJ__NyOf-0" value="" style="shape=image;verticalLabelPosition=bottom;labelBackgroundColor=#ffffff;verticalAlign=top;aspect=fixed;imageAspect=0;image=data:image/png,iVBORw0KGgoAAAANSUhEUgAAAOEAAADhCAMAAAAJbSJIAAAA8FBMVEX///96PmXBe57PssFRKEO/d5vWqsC/dZp4O2Pdusv+/P2gX4SIUnXBep11OWG2cpVxK1ni1t6xdZb18fPTpLp5OWTNrr6tao50M15zMFy9cZfQtcNKIj3z5+2ycZRwKVjFhaWnhZvkyNZFEDVJGjrLuMTDrbvt2+TVxc9YLEmdYYFMHz2wkqXjxtTy5OvPmrSacIuCSG5sN1pAAC9wU2bi3eC+srrd0tmSZIHDo7TGj6vp0t2zmKq5hKHSwcuLWXlxQV2feJF5R2NlOFOGcH6ci5ZhPlXEusCpmqR1WWubh5OAaHdmLlDp6OlnRVtXMEqmjnKZAAAJwUlEQVR4nO3de3eaSBgH4KJFCBWrxQtgqFqjIYmNmtR4SVZqkjYm3TTf/9vsDKjxAswAAoM7vz/27DmbTXh8h2FeHOXDh1Aj3f1zG+5fiDevHUX5ota/C3EfSEjRGiWZyX1JiQdqHMwUmWGgMJUSudTRoRkLs1qOYZZCaOSOpLgPao8ZzvKWbyW06ngoxuFIKTHMthAaxcwhGHVjVb8tITCyXNKNwtSo8QzjJATh1IwW91EGSMvIb/p2hcDIFZNqbPWVbZ+dMJViuW4CjUK7ZOOzFwKj2r2M+4i9RRrb1c9ZaBpP4z5q/Eh3jIPPWZgko9QpyU4+NyE0ThLQeGidmuzIQwjBBZJ442VDdvWhhKQbBzOUDy2Exvq3uCX2KfTcxyeuEBpTBDaQw16thPbhCUGIa5KHvTyWD1sIjCQ1ybqh5NA2j0KwYCXEKEyzNefLXxAhaCDV+JtkwaZ92JsQGtl4G0ihlfXm8yqM+UaA0HZefu5NCI3FeHySH58fYYqNRejWPhyCUOrwLu1D8oWwffDpS4RQaygYy8/kCgfI9ijZwkEvUP2IF+K2D0kVAh/28jqJQn2E3z4kUah7Xn4mSgiW117ao8QJfbQPkQqloO8GtJ3uzhMhLLRH/KdJgDvl0ljes29/QqHQ7tXA6jH3SVTrPu+wSne8smfenoTCoN3o16zJnf9k3mG99X5HR+r4bI/CFmqtWVZRcstjg0I/d5GljuK/fQhROG305Xfdu9Dc2uHhDqvWwLl7HYNQ6O+87kshiCpiGguNfGi+q6uzt5/nX30LszsDa02Iu0UH490Vv7yzj2aOPz5kK2EIQTgRfT7uZ/m5o1vyFsjj45/nn+HLvmdhis0ghWHwNnTvyocs1nglXJiz5y2Rb/dmKRMrdNOtkB8fDPdSkip0Ld628uz+PGHCq3+xeatSOl5FiBN6KN6WElxF7EpJlvDqwZ9uvZTbUw9BQoziXZw0Ty5QygejwpInxDjzLprXZ483T79+NJsnxwjk2dpVhAAhjy4e0J083gyslbGkz/9eX7vXcu0qErcQWTwwMC9+Pz69bv4ZYTh/fkOMWKC8PxfjFaKKB3XPL9u6ZaTh/M/bddNNedFs/tuPS3iF4F2cXDef5zqinZEGN4/2SvDqXDf/vsz119WviFKI0oHJ5Hk+xG26gfKs+T5kga0Jaj9/Gmz9XFRC90v6MTi8339uhpi4VV6fXv5eNE/A1eTtx+PN0Lb0kQivztx4YGD9Xk2Z3gOUc33gPK5DF7oWD542Dy83r2Fu1ApXiNBd/P31FPrOnvCEbsUDU+bb8y/782bfCUcIdccOiyxzHTZ3OXH2nHCEX7+eG/cPxzDbuuYf/5OKr4Qi5JcL4Mq58fMBlhMETOlwyozAtJlwhVY+V86z9z9edq7F0SQKoflLjiLA2CYqIUeFoYUKqdAKFVJhmKFCKrRChVQYZpIgFCQpQEdJtFAaDFt3jZ7BVOqTbubo9lLzcWeASKFU0FudmZFl5Lwiyzk+VxFFluVUlU3VJ8Wjb6depAQJBUEbtsaNEVOr5RVFLvGrI8ut9gqJ8OtpAFVV67Cop5KAHL8ECIXXgd7uNEb9fA2WjN85oDXh+mGZVA4W9futS1EJEBZgzcBYdPnWCLf9XlDKqSmyhY40HOEiRAvzwYUiFVIhFVIhFVIhFVIhFVIhFVIhFVIhFVIhFVIhFVIhFVIhFVIhFVIhFVIhFVIhFVLhvoTIr6ShQuKFhz9KD194+KM06cKay6Y9PKHIEi0cGFlGsbbKehWK1m5TLlXvkiyEG7lfh61xp2fw5kbM0s7TAbeFiy3DampShJujXfeBEyFcow709t0sK9fy1mZafl0oWjBAE6290OgNwsQJ3w9LG07bjZ7R583xWzFlqXq9m/kOSubtV5EpfJfCHdKzxfZ1X59JCOfz+Af/iRIqjDRUSIVWqJAKwwwVUqEVKqTCMPM/EBpMDn4glT9IoSAV9Gp6PO7MYKspLz95eyBCQStMq+VyOZ1OV9PVKvjXcQd+Lhw01HLyhUC3wG2kCpMG0C9ikoXS5a2dbolMl7v17acrJEgoXYLTzgkHSlguTuoiu/P0iIQIpVM97ayDvC7U2T0cg3whmDKnZeeRCXXjSYrdLV40QkHSwJQ+Hfr5zosP1pSZdtEtzjz74oUuFMCsMAVHAA8P/KPqVSlot4v/27F46bHtmReBULos6Lsvfblc1TFv+MJJxa10ZvGKTmdeuELNms6djs5Sut38FcCkUnXFwTMvM6k7n3mhCiXG6IzhldclUFmwVZrrMHeddVVwP/PCFZZ4mck2xu5GcwRPC9rGn0FNKqauOkZNLOELwQ/wJZnvdcoIJeQAJaylwzpsiwfOvAnWmRe+EIaXcyNkKS0lalKxeOMuetqMVAiROTnb6yBOSox4PvMiE0IkL/NGoxxA6bYeI0FolVLJzsbIs9JOlw5UvMiEVin7I+RVZJvnfdqMT2gqwVVkhokEPwSKJwbXRSo0x6tc6nXSCKW5mGb3ULwYhFYpldFsnHYwWm0s7nqMTCGzvIrsTj1w2gw+sfgRbj8jN6iQMacexryKrI3NDEYn5Ccq+iHeLWPzOfF7EFqlVPqzO6g0x2aga55zWK6rueEW0Ue1NeOehDA5mQFXEb/rMRxfEfc55IXZ+wOBt4Qiy6l+hbCUciWU4oFwahGnfstojeVDndeFLMeJ3e/vr5N3Icb+Ul8ROS7j9ebQ8sHcCyHcG1lf15EkFLmUZ595/ON+njeFrKrWi9+0nUadDKHIiTiPcraN0Oornzm1nrm1v9lChJDjfPvMTIHO8T/GL4SP4g7CQyVuoajWPTwyPnlC4PsW9sOY4hQC323IvFiFrDqJwBefEPhOo/DFJYzOF48QtA+4y+tECj20D4kUcpyn9iFpQpFTMxH7IhWC5bWv9iEpQrj8jMEXmTBIexRUyGzfmQtBCH2RPgt0I0K779HoVRh++4A2ZvNejN6EUbQPGMZW34PRixC2D/H7zEyz2GMVX8hyUbRH2JmOMOuIK4xyeY0ZfVTDMeIJWbVLmg9muPFuQAAh8EW6vPaQQk9BGdFCzHdX4kphlpcDCaNvHzxnsPaujldhLO2Dj2gzxdnoIvTz7kpc0RolJ6Pz92L4fHclrmgd2d7oIIytPQoQqZOXbS6Q9kKOjbF98B/pjt9dzNkIYfsQ97H6jTTeaa52v70lwT4Yqb1Vxy0hQe2D7wjtjRsBG0I2kndXIkh7rblaE7Icce2D7wit1Y2AlZDQ9sF3hGnWaq4WQoLbB//RDThWoVAkvH3wH32UzwEhxxLfPvgPaJIryWgf/GeYjnv5+R/n270W5K7LvAAAAABJRU5ErkJggg==;" vertex="1" parent="WIyWlLk6GJQsqaUBKTNV-1">
          <mxGeometry x="600" y="60" width="80" height="80" as="geometry" />
        </mxCell>
        <mxCell id="GaWV32QuYPtfHJ__NyOf-2" value="User Pool" style="text;html=1;align=center;verticalAlign=middle;resizable=0;points=[];autosize=1;" vertex="1" parent="WIyWlLk6GJQsqaUBKTNV-1">
          <mxGeometry x="592.5" y="150" width="70" height="20" as="geometry" />
        </mxCell>
        <mxCell id="GaWV32QuYPtfHJ__NyOf-3" value="" style="shape=image;verticalLabelPosition=bottom;labelBackgroundColor=#ffffff;verticalAlign=top;aspect=fixed;imageAspect=0;image=data:image/png,iVBORw0KGgoAAAANSUhEUgAAAOEAAADhCAMAAAAJbSJIAAAA8FBMVEX///96PmXBe57PssFRKEO/d5vWqsC/dZp4O2Pdusv+/P2gX4SIUnXBep11OWG2cpVxK1ni1t6xdZb18fPTpLp5OWTNrr6tao50M15zMFy9cZfQtcNKIj3z5+2ycZRwKVjFhaWnhZvkyNZFEDVJGjrLuMTDrbvt2+TVxc9YLEmdYYFMHz2wkqXjxtTy5OvPmrSacIuCSG5sN1pAAC9wU2bi3eC+srrd0tmSZIHDo7TGj6vp0t2zmKq5hKHSwcuLWXlxQV2feJF5R2NlOFOGcH6ci5ZhPlXEusCpmqR1WWubh5OAaHdmLlDp6OlnRVtXMEqmjnKZAAAJwUlEQVR4nO3de3eaSBgH4KJFCBWrxQtgqFqjIYmNmtR4SVZqkjYm3TTf/9vsDKjxAswAAoM7vz/27DmbTXh8h2FeHOXDh1Aj3f1zG+5fiDevHUX5ota/C3EfSEjRGiWZyX1JiQdqHMwUmWGgMJUSudTRoRkLs1qOYZZCaOSOpLgPao8ZzvKWbyW06ngoxuFIKTHMthAaxcwhGHVjVb8tITCyXNKNwtSo8QzjJATh1IwW91EGSMvIb/p2hcDIFZNqbPWVbZ+dMJViuW4CjUK7ZOOzFwKj2r2M+4i9RRrb1c9ZaBpP4z5q/Eh3jIPPWZgko9QpyU4+NyE0ThLQeGidmuzIQwjBBZJ442VDdvWhhKQbBzOUDy2Exvq3uCX2KfTcxyeuEBpTBDaQw16thPbhCUGIa5KHvTyWD1sIjCQ1ybqh5NA2j0KwYCXEKEyzNefLXxAhaCDV+JtkwaZ92JsQGtl4G0ihlfXm8yqM+UaA0HZefu5NCI3FeHySH58fYYqNRejWPhyCUOrwLu1D8oWwffDpS4RQaygYy8/kCgfI9ijZwkEvUP2IF+K2D0kVAh/28jqJQn2E3z4kUah7Xn4mSgiW117ao8QJfbQPkQqloO8GtJ3uzhMhLLRH/KdJgDvl0ljes29/QqHQ7tXA6jH3SVTrPu+wSne8smfenoTCoN3o16zJnf9k3mG99X5HR+r4bI/CFmqtWVZRcstjg0I/d5GljuK/fQhROG305Xfdu9Dc2uHhDqvWwLl7HYNQ6O+87kshiCpiGguNfGi+q6uzt5/nX30LszsDa02Iu0UH490Vv7yzj2aOPz5kK2EIQTgRfT7uZ/m5o1vyFsjj45/nn+HLvmdhis0ghWHwNnTvyocs1nglXJiz5y2Rb/dmKRMrdNOtkB8fDPdSkip0Ld628uz+PGHCq3+xeatSOl5FiBN6KN6WElxF7EpJlvDqwZ9uvZTbUw9BQoziXZw0Ty5QygejwpInxDjzLprXZ483T79+NJsnxwjk2dpVhAAhjy4e0J083gyslbGkz/9eX7vXcu0qErcQWTwwMC9+Pz69bv4ZYTh/fkOMWKC8PxfjFaKKB3XPL9u6ZaTh/M/bddNNedFs/tuPS3iF4F2cXDef5zqinZEGN4/2SvDqXDf/vsz119WviFKI0oHJ5Hk+xG26gfKs+T5kga0Jaj9/Gmz9XFRC90v6MTi8339uhpi4VV6fXv5eNE/A1eTtx+PN0Lb0kQivztx4YGD9Xk2Z3gOUc33gPK5DF7oWD542Dy83r2Fu1ApXiNBd/P31FPrOnvCEbsUDU+bb8y/782bfCUcIdccOiyxzHTZ3OXH2nHCEX7+eG/cPxzDbuuYf/5OKr4Qi5JcL4Mq58fMBlhMETOlwyozAtJlwhVY+V86z9z9edq7F0SQKoflLjiLA2CYqIUeFoYUKqdAKFVJhmKFCKrRChVQYZpIgFCQpQEdJtFAaDFt3jZ7BVOqTbubo9lLzcWeASKFU0FudmZFl5Lwiyzk+VxFFluVUlU3VJ8Wjb6depAQJBUEbtsaNEVOr5RVFLvGrI8ut9gqJ8OtpAFVV67Cop5KAHL8ECIXXgd7uNEb9fA2WjN85oDXh+mGZVA4W9futS1EJEBZgzcBYdPnWCLf9XlDKqSmyhY40HOEiRAvzwYUiFVIhFVIhFVIhFVIhFVIhFVIhFVIhFVIhFVIhFVIhFVIhFVIhFVIhFVIhFVIhFVLhvoTIr6ShQuKFhz9KD194+KM06cKay6Y9PKHIEi0cGFlGsbbKehWK1m5TLlXvkiyEG7lfh61xp2fw5kbM0s7TAbeFiy3DampShJujXfeBEyFcow709t0sK9fy1mZafl0oWjBAE6290OgNwsQJ3w9LG07bjZ7R583xWzFlqXq9m/kOSubtV5EpfJfCHdKzxfZ1X59JCOfz+Af/iRIqjDRUSIVWqJAKwwwVUqEVKqTCMPM/EBpMDn4glT9IoSAV9Gp6PO7MYKspLz95eyBCQStMq+VyOZ1OV9PVKvjXcQd+Lhw01HLyhUC3wG2kCpMG0C9ikoXS5a2dbolMl7v17acrJEgoXYLTzgkHSlguTuoiu/P0iIQIpVM97ayDvC7U2T0cg3whmDKnZeeRCXXjSYrdLV40QkHSwJQ+Hfr5zosP1pSZdtEtzjz74oUuFMCsMAVHAA8P/KPqVSlot4v/27F46bHtmReBULos6Lsvfblc1TFv+MJJxa10ZvGKTmdeuELNms6djs5Sut38FcCkUnXFwTMvM6k7n3mhCiXG6IzhldclUFmwVZrrMHeddVVwP/PCFZZ4mck2xu5GcwRPC9rGn0FNKqauOkZNLOELwQ/wJZnvdcoIJeQAJaylwzpsiwfOvAnWmRe+EIaXcyNkKS0lalKxeOMuetqMVAiROTnb6yBOSox4PvMiE0IkL/NGoxxA6bYeI0FolVLJzsbIs9JOlw5UvMiEVin7I+RVZJvnfdqMT2gqwVVkhokEPwSKJwbXRSo0x6tc6nXSCKW5mGb3ULwYhFYpldFsnHYwWm0s7nqMTCGzvIrsTj1w2gw+sfgRbj8jN6iQMacexryKrI3NDEYn5Ccq+iHeLWPzOfF7EFqlVPqzO6g0x2aga55zWK6rueEW0Ue1NeOehDA5mQFXEb/rMRxfEfc55IXZ+wOBt4Qiy6l+hbCUciWU4oFwahGnfstojeVDndeFLMeJ3e/vr5N3Icb+Ul8ROS7j9ebQ8sHcCyHcG1lf15EkFLmUZ595/ON+njeFrKrWi9+0nUadDKHIiTiPcraN0Oornzm1nrm1v9lChJDjfPvMTIHO8T/GL4SP4g7CQyVuoajWPTwyPnlC4PsW9sOY4hQC323IvFiFrDqJwBefEPhOo/DFJYzOF48QtA+4y+tECj20D4kUcpyn9iFpQpFTMxH7IhWC5bWv9iEpQrj8jMEXmTBIexRUyGzfmQtBCH2RPgt0I0K779HoVRh++4A2ZvNejN6EUbQPGMZW34PRixC2D/H7zEyz2GMVX8hyUbRH2JmOMOuIK4xyeY0ZfVTDMeIJWbVLmg9muPFuQAAh8EW6vPaQQk9BGdFCzHdX4kphlpcDCaNvHzxnsPaujldhLO2Dj2gzxdnoIvTz7kpc0RolJ6Pz92L4fHclrmgd2d7oIIytPQoQqZOXbS6Q9kKOjbF98B/pjt9dzNkIYfsQ97H6jTTeaa52v70lwT4Yqb1Vxy0hQe2D7wjtjRsBG0I2kndXIkh7rblaE7Icce2D7wit1Y2AlZDQ9sF3hGnWaq4WQoLbB//RDThWoVAkvH3wH32UzwEhxxLfPvgPaJIryWgf/GeYjnv5+R/n270W5K7LvAAAAABJRU5ErkJggg==;" vertex="1" parent="WIyWlLk6GJQsqaUBKTNV-1">
          <mxGeometry x="702.5" y="35" width="115" height="115" as="geometry" />
        </mxCell>
        <mxCell id="GaWV32QuYPtfHJ__NyOf-4" value="AWS cognito Authorisation server" style="text;html=1;align=center;verticalAlign=middle;resizable=0;points=[];autosize=1;" vertex="1" parent="WIyWlLk6GJQsqaUBKTNV-1">
          <mxGeometry x="680" y="150" width="190" height="20" as="geometry" />
        </mxCell>
        <mxCell id="GaWV32QuYPtfHJ__NyOf-7" value="" style="shape=image;verticalLabelPosition=bottom;labelBackgroundColor=#ffffff;verticalAlign=top;aspect=fixed;imageAspect=0;image=data:image/png,iVBORw0KGgoAAAANSUhEUgAAAMgAAADICAYAAACtWK6eAAAKbElEQVR4Ae2dXchlVRnH/2OSijYoI0kGCkKmJImgBYqiaBdOEBRKJVOMFkUUUnnRhQjKoCCKihBkil6I4l1fFDbRUOlNTc4M3igFNWNNopaIMvmRXzzki2fmzPmvvfY57/56fgsO73nPs/ba6/md/3+t/XX2ligQgAAEIAABCEAAAhCAAAQgAAEIQAACEIAABCAAAQhAAAKzBE6XdIOkHZKelfSGpHd4wWBAGnhN0jOSfinpe5I+Mivg9XofxviZpLcHBAJjMjg10UAM4vdJOmm9zPEVSeHKJp2hDpyGqoF/S7p41Sa5EWMwMExIAzGbbFmVSbZOCMxQRzX61f2MGya5cFmTnCXpdQzC7DFRDTwnadMyJvnNRMEwYnc/Yg+V+d1tDXIO5mDmSKCBVyWd0MYktzeAE8eZr2q7gjadYhkINCRwrKTLJe1uoOOvNWzzoGq7Cg3v7+rky0G94h8I1BE4RtLOgpYfqmtS2iApph633fiN2kapD4GeCMTRKqflPbX92lhoMFZ2Wm2j1IdATwRKA35sDVWVExsYJOpQIDAWAi8YTUesqmCQKlxUHgGBwRokDqGdwgsG66CBmsOzgzPIBZL+bKY1t9NEzO9Uwud9PqGx0FqpDMog53Hlrz1qgsDfF/gqWMRV5qE5VwZlkO3MHBikYw2E5lwZlEEOdAxnFaMQbax2VO+aZ2jOlUEZpGs4rG/c4l7V94dBmJnYdDMawCAGzqpGIdoZ72w0GYPsk8QLBrUaKA1ekzGIS4QYBBYRwCCLyPA5BBpsXjtIozqK5RIhBoFFBJhBFpHhcwgwg6ABCHgCzCCeD9HkBDBIcgGQvieAQTwfoskJYJDkAiB9TwCDeD5EkxPAIMkFQPqeAAbxfIgmJ4BBkguA9D0BDOL5EE1OAIMkFwDpewIYxPMhmpwABkkuANL3BDCI50M0OQEMklwApO8JYBDPh2hyAhgkuQBI3xPAIJ4P0eQEMEhyAZC+J4BBPB+iyQlgkOQCIH1PAIN4PkSTE8AgyQVA+p4ABvF8iCYngEGSC4D0PQEM4vkQTU4AgyQXAOl7AhjE8yGanAAGSS4A0vcEMIjnQzQ5AQySXACk7wlgEM+HaHICGCS5AEjfE8Agng/R5AQwSHIBkL4ngEE8H6LJCWCQ5AIgfU8Ag3g+RJMTwCDJBUD6ngAG8XyIJieAQZILgPQ9AQzi+RBNTgCDJBcA6XsCGMTzIZqcAAZJLgDS9wQwiOdDNDkBDJJcAKTvCWAQz4docgIYJLkASN8TwCCeD9HkBDBIcgGQvieAQTwfoskJYJDkAiB9TwCDeD5EkxPAIMkFQPqeAAbxfIgmJ4BBkguA9D0BDOL5EE1OAIMkFwDpewIYxPMhmpwABkkuANL3BDCI50M0OQEMklwApO8JYBDPh2hyAhgkuQBI3xPAIJ4P0eQEMEhyAZC+J4BBPB+iyQlgkOQCIH1PAIN4PkSTE8AgyQVA+p4ABvF8iCYngEGSC4D0PQEM4vkQTU4AgyQXAOl7AhjE8yGanAAGSS4A0vcEMIjnQzQ5AQySXACk7wlgEM+HaHICGCS5AEjfE0hjkC2SeMGgVgNpDFJKlLgEg3oGbv55QYvbi1hVOdE0tvbFRZ1FZa0Ofxd/KbBZPZtFeozPMUgDUyPK1YtySExHY5C3ESubSB1rIDTnyqBmkH0dwxnSKEZf+pmlQnOuDMog2zAIM0jHGgjNuTIogxwl6dGOATFy9zNyD4F7aC0058qgDBId3SDpC5J+KOlBXjBYBw2EtkJjobVSGZxBSh0mDoEuCWCQLmmzrtERWKlBNjXYf/jw6BDR4cwEXjSafr4WzDGmsbWdsk/XNkp9CPRE4HhJ7tzc3jb9clNSmOS+No2yDAR6IHBdYcB/rE2ffl1oNEzynTYNswwEOiSwWdKrBS3f2aY/1xYaXdvU+pOkmyR9lxcMBqSB6yVtb6jhz7QxSFyte6DhCtbMwt+8J+vG+t3/TdIH2hgklrkVg3DJyMQ1sLWtOWK54yQ9PXFAYx356Pfys3XsZzc5C2899DFJ7hgyX9TyXxQMu2f4V0knWOVXBM+T9C9mEja3JqKBJyWdWqH/RlVPlvT7iQBixO5+xB4K80fe23VoJPraSrG9dqWkP2IUZpMRaeCt935+cXGt4Jepf5qkayTdJun+dbiUmUvk+ZnAMhqIKz1ukfRlSSctI3SWhQAEIAABCEAAAhCAAAQgAAEIQAACEIBADgJxEvESSVdw13buWt+zBuI83aWSTunbemdLulvS30d0wmgoZ3PpRzdn8v8p6R5Jnf48PC5e/AWm4Ez6yDTwW0mfXO9Z5ZsNfr7I6NjN6Ajnes7/k/SD9TLJHSMbMRBQvYCyMHtgmV8RHs5gN2MONqkmpoHYN1lJ+fzEwGQZJcmzPIN+fVmHxA23nsMgzB4T1cDLkj66jEnicuGmI1Ec7v05l71zF/eeNfBTSX+p0O2P2xokbj/6UoMV7ZJ0UduVsBwE1onAuZIeb6Df1yW5B9Iu7F6ckSzNHr+SdPTCFghAoF8CR0p6uIGOv9Wmm/cWGt4vaWObhlkGAh0SiCdPlW5d9ZM2/XmiYJDvt2mUZSDQA4GvFrRcegDoYbtcuhdWXHJCgcAYCMT9r9zuQjwaITbHqsqbhUY/WNUalSHQL4E4pOtMEqc0qoprLGKUaRCIp4l9rudL1Le0XH/0O/rfpJSed1N9JAuDNME+7jqxH1l6dkZJB33Ho/9N9ocxyLi12nnvv1TY5Ohb+LXrj3xcwSCODrE5ArsnZpDIxxUM4ugQmyPwxsQMEvm4gkEcHWJzBGo3YcZQfy7JmQ8wyAwM3pYJjEHwtX10WWMQR4fYHIFa8Y2h/lySMx9gkBkYvC0TGIPga/vossYgjg6xOQK14htD/bkkZz7AIDMweFsmMAbB1/bRZY1BHB1icwRqxTeG+nNJznyAQWZg8LZM4L8TOw8S+biCQRwdYnMEdkzMIJGPKxjE0SE2R+B8SVM5mx55RD6uYBBHh9hhCVwm6amRzyTR/7ibe6lgkBIh4gsJxL2hzhjhq+aeVis3yGuFkeVDC3ETgMCwCGyQFLf3cUfiqvUcdy1xDV4wLAb0BgILCcTs6LQck0F1KR3lWNnNf6t7xgIQqCNQukPok3XN/b/2toLr4lkLnT65p00SLJOewJmSDhS0/KM2lD5VaDSmrLixNSZpQ5dluiBwlqS9DXS8uW1nYupx224Ri5kkNrdin4Q7LbYlzXKrInCcpBjc75JUOtAU+v3HMg/T+WIDg5QMRLw8yMCoP0bfXtaZv8MkxVkUgfcn8GXY72lzR8VDDRXPm/4PJsEkE9NA7Lh/4lCxt/0/9i+mdvXnMiMPy45zxlj73mK/+bNtzbBouTAJM8m4hbEmkMx/X5F0+SKRL/t5bG6xT4JJxmqwnZI+vqwJmiwfR7eaHAIeK0j6Pa1BIJ5ZeLWkI5qIe5V14nhznHGPy1Li2q0mx50R37TEN7TvMy5KfFbSHyTdKulCSXGxIgUCEIAABCAAAQhAAAIQgAAEIAABCEAAAhCAAAQgAAEIQGCGwLsiAswRsD4NGgAAAABJRU5ErkJggg==;" vertex="1" parent="WIyWlLk6GJQsqaUBKTNV-1">
          <mxGeometry x="147.5" y="207.5" width="105" height="105" as="geometry" />
        </mxCell>
        <mxCell id="GaWV32QuYPtfHJ__NyOf-8" value="Client (React App)" style="text;html=1;align=center;verticalAlign=middle;resizable=0;points=[];autosize=1;" vertex="1" parent="WIyWlLk6GJQsqaUBKTNV-1">
          <mxGeometry x="147.5" y="316.25" width="110" height="20" as="geometry" />
        </mxCell>
        <mxCell id="GaWV32QuYPtfHJ__NyOf-9" value="" style="endArrow=classic;html=1;" edge="1" parent="WIyWlLk6GJQsqaUBKTNV-1">
          <mxGeometry width="50" height="50" relative="1" as="geometry">
            <mxPoint x="307.5" y="160" as="sourcePoint" />
            <mxPoint x="577.5" y="60" as="targetPoint" />
          </mxGeometry>
        </mxCell>
        <mxCell id="GaWV32QuYPtfHJ__NyOf-10" value="" style="endArrow=classic;html=1;" edge="1" parent="WIyWlLk6GJQsqaUBKTNV-1">
          <mxGeometry width="50" height="50" relative="1" as="geometry">
            <mxPoint x="586.54" y="80" as="sourcePoint" />
            <mxPoint x="316.54" y="180" as="targetPoint" />
          </mxGeometry>
        </mxCell>
        <mxCell id="GaWV32QuYPtfHJ__NyOf-12" value="2. Returns ID and access token" style="text;html=1;align=center;verticalAlign=middle;resizable=0;points=[];autosize=1;rotation=15;" vertex="1" parent="WIyWlLk6GJQsqaUBKTNV-1">
          <mxGeometry x="353.04" y="370" width="180" height="20" as="geometry" />
        </mxCell>
        <mxCell id="GaWV32QuYPtfHJ__NyOf-21" value="DETAILED ARCHITECTURE" style="text;html=1;align=center;verticalAlign=middle;resizable=0;points=[];autosize=1;fontSize=20;" vertex="1" parent="WIyWlLk6GJQsqaUBKTNV-1">
          <mxGeometry x="170" y="30" width="270" height="30" as="geometry" />
        </mxCell>
        <mxCell id="GaWV32QuYPtfHJ__NyOf-30" value="" style="shape=actor;whiteSpace=wrap;html=1;fontSize=20;" vertex="1" parent="WIyWlLk6GJQsqaUBKTNV-1">
          <mxGeometry x="10" y="227.5" width="40" height="60" as="geometry" />
        </mxCell>
        <mxCell id="GaWV32QuYPtfHJ__NyOf-31" value="User" style="text;html=1;align=center;verticalAlign=middle;resizable=0;points=[];autosize=1;fontSize=12;" vertex="1" parent="WIyWlLk6GJQsqaUBKTNV-1">
          <mxGeometry x="10" y="260" width="40" height="20" as="geometry" />
        </mxCell>
        <mxCell id="GaWV32QuYPtfHJ__NyOf-33" value="" style="endArrow=classic;startArrow=classic;html=1;fontSize=12;" edge="1" parent="WIyWlLk6GJQsqaUBKTNV-1">
          <mxGeometry width="50" height="50" relative="1" as="geometry">
            <mxPoint x="57.5" y="259" as="sourcePoint" />
            <mxPoint x="140" y="260" as="targetPoint" />
          </mxGeometry>
        </mxCell>
        <mxCell id="GaWV32QuYPtfHJ__NyOf-34" value="Registration" style="text;html=1;align=center;verticalAlign=middle;resizable=0;points=[];autosize=1;fontSize=12;" vertex="1" parent="WIyWlLk6GJQsqaUBKTNV-1">
          <mxGeometry x="60" y="230" width="80" height="20" as="geometry" />
        </mxCell>
        <mxCell id="GaWV32QuYPtfHJ__NyOf-37" value="" style="endArrow=classic;html=1;fontSize=12;" edge="1" parent="WIyWlLk6GJQsqaUBKTNV-1">
          <mxGeometry width="50" height="50" relative="1" as="geometry">
            <mxPoint x="332.5" y="370" as="sourcePoint" />
            <mxPoint x="562.5" y="430" as="targetPoint" />
          </mxGeometry>
        </mxCell>
        <mxCell id="GaWV32QuYPtfHJ__NyOf-39" value="" style="shape=cylinder3;whiteSpace=wrap;html=1;boundedLbl=1;backgroundOutline=1;size=15;fontSize=12;" vertex="1" parent="WIyWlLk6GJQsqaUBKTNV-1">
          <mxGeometry x="760" y="242.5" width="35" height="55" as="geometry" />
        </mxCell>
        <mxCell id="GaWV32QuYPtfHJ__NyOf-45" value="1. Register user with the pool" style="text;html=1;align=center;verticalAlign=middle;resizable=0;points=[];autosize=1;fontSize=12;rotation=-20;" vertex="1" parent="WIyWlLk6GJQsqaUBKTNV-1">
          <mxGeometry x="340" y="90" width="170" height="20" as="geometry" />
        </mxCell>
        <mxCell id="GaWV32QuYPtfHJ__NyOf-47" value="2. Send verification code in email/SMS" style="text;html=1;align=center;verticalAlign=middle;resizable=0;points=[];autosize=1;fontSize=12;rotation=-20;" vertex="1" parent="WIyWlLk6GJQsqaUBKTNV-1">
          <mxGeometry x="340" y="110" width="220" height="20" as="geometry" />
        </mxCell>
        <mxCell id="GaWV32QuYPtfHJ__NyOf-48" value="" style="endArrow=classic;html=1;fontSize=12;" edge="1" parent="WIyWlLk6GJQsqaUBKTNV-1">
          <mxGeometry width="50" height="50" relative="1" as="geometry">
            <mxPoint x="330" y="200" as="sourcePoint" />
            <mxPoint x="583.98" y="107.5" as="targetPoint" />
          </mxGeometry>
        </mxCell>
        <mxCell id="GaWV32QuYPtfHJ__NyOf-51" value="1. Sign-in" style="text;html=1;align=center;verticalAlign=middle;resizable=0;points=[];autosize=1;fontSize=12;rotation=15;" vertex="1" parent="WIyWlLk6GJQsqaUBKTNV-1">
          <mxGeometry x="390" y="400" width="70" height="20" as="geometry" />
        </mxCell>
        <mxCell id="GaWV32QuYPtfHJ__NyOf-53" value="" style="endArrow=classic;html=1;fontSize=12;" edge="1" parent="WIyWlLk6GJQsqaUBKTNV-1">
          <mxGeometry width="50" height="50" relative="1" as="geometry">
            <mxPoint x="592.5" y="130" as="sourcePoint" />
            <mxPoint x="332.5" y="220" as="targetPoint" />
          </mxGeometry>
        </mxCell>
        <mxCell id="GaWV32QuYPtfHJ__NyOf-58" value="3. API request to Django with User pool tokens" style="text;html=1;align=center;verticalAlign=middle;resizable=0;points=[];autosize=1;fontSize=12;" vertex="1" parent="WIyWlLk6GJQsqaUBKTNV-1">
          <mxGeometry x="332.5" y="292.5" width="260" height="20" as="geometry" />
        </mxCell>
        <mxCell id="GaWV32QuYPtfHJ__NyOf-60" value="4. Token verification" style="text;html=1;align=center;verticalAlign=middle;resizable=0;points=[];autosize=1;fontSize=12;" vertex="1" parent="WIyWlLk6GJQsqaUBKTNV-1">
          <mxGeometry x="510" y="336.25" width="120" height="20" as="geometry" />
        </mxCell>
        <mxCell id="GaWV32QuYPtfHJ__NyOf-63" value="3. User enters code for verification" style="text;html=1;align=center;verticalAlign=middle;resizable=0;points=[];autosize=1;fontSize=12;rotation=-20;" vertex="1" parent="WIyWlLk6GJQsqaUBKTNV-1">
          <mxGeometry x="362.5" y="130" width="200" height="20" as="geometry" />
        </mxCell>
        <mxCell id="GaWV32QuYPtfHJ__NyOf-66" value="4. Returns HTTP status OK" style="text;html=1;align=center;verticalAlign=middle;resizable=0;points=[];autosize=1;fontSize=12;rotation=-20;" vertex="1" parent="WIyWlLk6GJQsqaUBKTNV-1">
          <mxGeometry x="390" y="150" width="160" height="20" as="geometry" />
        </mxCell>
        <mxCell id="GaWV32QuYPtfHJ__NyOf-68" value="" style="endArrow=classic;html=1;fontSize=12;" edge="1" parent="WIyWlLk6GJQsqaUBKTNV-1">
          <mxGeometry width="50" height="50" relative="1" as="geometry">
            <mxPoint x="326.96" y="257.5" as="sourcePoint" />
            <mxPoint x="600" y="257" as="targetPoint" />
          </mxGeometry>
        </mxCell>
        <mxCell id="GaWV32QuYPtfHJ__NyOf-69" value="5. API request to store user details with cognito ID" style="text;html=1;align=center;verticalAlign=middle;resizable=0;points=[];autosize=1;fontSize=12;" vertex="1" parent="WIyWlLk6GJQsqaUBKTNV-1">
          <mxGeometry x="322.49999999999994" y="230" width="280" height="20" as="geometry" />
        </mxCell>
        <mxCell id="GaWV32QuYPtfHJ__NyOf-71" value="Django ORM" style="text;html=1;align=center;verticalAlign=middle;resizable=0;points=[];autosize=1;fontSize=12;" vertex="1" parent="WIyWlLk6GJQsqaUBKTNV-1">
          <mxGeometry x="735" y="210" width="80" height="20" as="geometry" />
        </mxCell>
        <mxCell id="GaWV32QuYPtfHJ__NyOf-72" value="" style="endArrow=classic;html=1;fontSize=12;" edge="1" parent="WIyWlLk6GJQsqaUBKTNV-1">
          <mxGeometry width="50" height="50" relative="1" as="geometry">
            <mxPoint x="580" y="400" as="sourcePoint" />
            <mxPoint x="332.5" y="340" as="targetPoint" />
          </mxGeometry>
        </mxCell>
        <mxCell id="GaWV32QuYPtfHJ__NyOf-73" value="" style="shape=image;verticalLabelPosition=bottom;labelBackgroundColor=#ffffff;verticalAlign=top;aspect=fixed;imageAspect=0;image=data:image/png,iVBORw0KGgoAAAANSUhEUgAAAOEAAADhCAMAAAAJbSJIAAAA8FBMVEX///96PmXBe57PssFRKEO/d5vWqsC/dZp4O2Pdusv+/P2gX4SIUnXBep11OWG2cpVxK1ni1t6xdZb18fPTpLp5OWTNrr6tao50M15zMFy9cZfQtcNKIj3z5+2ycZRwKVjFhaWnhZvkyNZFEDVJGjrLuMTDrbvt2+TVxc9YLEmdYYFMHz2wkqXjxtTy5OvPmrSacIuCSG5sN1pAAC9wU2bi3eC+srrd0tmSZIHDo7TGj6vp0t2zmKq5hKHSwcuLWXlxQV2feJF5R2NlOFOGcH6ci5ZhPlXEusCpmqR1WWubh5OAaHdmLlDp6OlnRVtXMEqmjnKZAAAJwUlEQVR4nO3de3eaSBgH4KJFCBWrxQtgqFqjIYmNmtR4SVZqkjYm3TTf/9vsDKjxAswAAoM7vz/27DmbTXh8h2FeHOXDh1Aj3f1zG+5fiDevHUX5ota/C3EfSEjRGiWZyX1JiQdqHMwUmWGgMJUSudTRoRkLs1qOYZZCaOSOpLgPao8ZzvKWbyW06ngoxuFIKTHMthAaxcwhGHVjVb8tITCyXNKNwtSo8QzjJATh1IwW91EGSMvIb/p2hcDIFZNqbPWVbZ+dMJViuW4CjUK7ZOOzFwKj2r2M+4i9RRrb1c9ZaBpP4z5q/Eh3jIPPWZgko9QpyU4+NyE0ThLQeGidmuzIQwjBBZJ442VDdvWhhKQbBzOUDy2Exvq3uCX2KfTcxyeuEBpTBDaQw16thPbhCUGIa5KHvTyWD1sIjCQ1ybqh5NA2j0KwYCXEKEyzNefLXxAhaCDV+JtkwaZ92JsQGtl4G0ihlfXm8yqM+UaA0HZefu5NCI3FeHySH58fYYqNRejWPhyCUOrwLu1D8oWwffDpS4RQaygYy8/kCgfI9ijZwkEvUP2IF+K2D0kVAh/28jqJQn2E3z4kUah7Xn4mSgiW117ao8QJfbQPkQqloO8GtJ3uzhMhLLRH/KdJgDvl0ljes29/QqHQ7tXA6jH3SVTrPu+wSne8smfenoTCoN3o16zJnf9k3mG99X5HR+r4bI/CFmqtWVZRcstjg0I/d5GljuK/fQhROG305Xfdu9Dc2uHhDqvWwLl7HYNQ6O+87kshiCpiGguNfGi+q6uzt5/nX30LszsDa02Iu0UH490Vv7yzj2aOPz5kK2EIQTgRfT7uZ/m5o1vyFsjj45/nn+HLvmdhis0ghWHwNnTvyocs1nglXJiz5y2Rb/dmKRMrdNOtkB8fDPdSkip0Ld628uz+PGHCq3+xeatSOl5FiBN6KN6WElxF7EpJlvDqwZ9uvZTbUw9BQoziXZw0Ty5QygejwpInxDjzLprXZ483T79+NJsnxwjk2dpVhAAhjy4e0J083gyslbGkz/9eX7vXcu0qErcQWTwwMC9+Pz69bv4ZYTh/fkOMWKC8PxfjFaKKB3XPL9u6ZaTh/M/bddNNedFs/tuPS3iF4F2cXDef5zqinZEGN4/2SvDqXDf/vsz119WviFKI0oHJ5Hk+xG26gfKs+T5kga0Jaj9/Gmz9XFRC90v6MTi8339uhpi4VV6fXv5eNE/A1eTtx+PN0Lb0kQivztx4YGD9Xk2Z3gOUc33gPK5DF7oWD542Dy83r2Fu1ApXiNBd/P31FPrOnvCEbsUDU+bb8y/782bfCUcIdccOiyxzHTZ3OXH2nHCEX7+eG/cPxzDbuuYf/5OKr4Qi5JcL4Mq58fMBlhMETOlwyozAtJlwhVY+V86z9z9edq7F0SQKoflLjiLA2CYqIUeFoYUKqdAKFVJhmKFCKrRChVQYZpIgFCQpQEdJtFAaDFt3jZ7BVOqTbubo9lLzcWeASKFU0FudmZFl5Lwiyzk+VxFFluVUlU3VJ8Wjb6depAQJBUEbtsaNEVOr5RVFLvGrI8ut9gqJ8OtpAFVV67Cop5KAHL8ECIXXgd7uNEb9fA2WjN85oDXh+mGZVA4W9futS1EJEBZgzcBYdPnWCLf9XlDKqSmyhY40HOEiRAvzwYUiFVIhFVIhFVIhFVIhFVIhFVIhFVIhFVIhFVIhFVIhFVIhFVIhFVIhFVIhFVIhFVLhvoTIr6ShQuKFhz9KD194+KM06cKay6Y9PKHIEi0cGFlGsbbKehWK1m5TLlXvkiyEG7lfh61xp2fw5kbM0s7TAbeFiy3DampShJujXfeBEyFcow709t0sK9fy1mZafl0oWjBAE6290OgNwsQJ3w9LG07bjZ7R583xWzFlqXq9m/kOSubtV5EpfJfCHdKzxfZ1X59JCOfz+Af/iRIqjDRUSIVWqJAKwwwVUqEVKqTCMPM/EBpMDn4glT9IoSAV9Gp6PO7MYKspLz95eyBCQStMq+VyOZ1OV9PVKvjXcQd+Lhw01HLyhUC3wG2kCpMG0C9ikoXS5a2dbolMl7v17acrJEgoXYLTzgkHSlguTuoiu/P0iIQIpVM97ayDvC7U2T0cg3whmDKnZeeRCXXjSYrdLV40QkHSwJQ+Hfr5zosP1pSZdtEtzjz74oUuFMCsMAVHAA8P/KPqVSlot4v/27F46bHtmReBULos6Lsvfblc1TFv+MJJxa10ZvGKTmdeuELNms6djs5Sut38FcCkUnXFwTMvM6k7n3mhCiXG6IzhldclUFmwVZrrMHeddVVwP/PCFZZ4mck2xu5GcwRPC9rGn0FNKqauOkZNLOELwQ/wJZnvdcoIJeQAJaylwzpsiwfOvAnWmRe+EIaXcyNkKS0lalKxeOMuetqMVAiROTnb6yBOSox4PvMiE0IkL/NGoxxA6bYeI0FolVLJzsbIs9JOlw5UvMiEVin7I+RVZJvnfdqMT2gqwVVkhokEPwSKJwbXRSo0x6tc6nXSCKW5mGb3ULwYhFYpldFsnHYwWm0s7nqMTCGzvIrsTj1w2gw+sfgRbj8jN6iQMacexryKrI3NDEYn5Ccq+iHeLWPzOfF7EFqlVPqzO6g0x2aga55zWK6rueEW0Ue1NeOehDA5mQFXEb/rMRxfEfc55IXZ+wOBt4Qiy6l+hbCUciWU4oFwahGnfstojeVDndeFLMeJ3e/vr5N3Icb+Ul8ROS7j9ebQ8sHcCyHcG1lf15EkFLmUZ595/ON+njeFrKrWi9+0nUadDKHIiTiPcraN0Oornzm1nrm1v9lChJDjfPvMTIHO8T/GL4SP4g7CQyVuoajWPTwyPnlC4PsW9sOY4hQC323IvFiFrDqJwBefEPhOo/DFJYzOF48QtA+4y+tECj20D4kUcpyn9iFpQpFTMxH7IhWC5bWv9iEpQrj8jMEXmTBIexRUyGzfmQtBCH2RPgt0I0K779HoVRh++4A2ZvNejN6EUbQPGMZW34PRixC2D/H7zEyz2GMVX8hyUbRH2JmOMOuIK4xyeY0ZfVTDMeIJWbVLmg9muPFuQAAh8EW6vPaQQk9BGdFCzHdX4kphlpcDCaNvHzxnsPaujldhLO2Dj2gzxdnoIvTz7kpc0RolJ6Pz92L4fHclrmgd2d7oIIytPQoQqZOXbS6Q9kKOjbF98B/pjt9dzNkIYfsQ97H6jTTeaa52v70lwT4Yqb1Vxy0hQe2D7wjtjRsBG0I2kndXIkh7rblaE7Icce2D7wit1Y2AlZDQ9sF3hGnWaq4WQoLbB//RDThWoVAkvH3wH32UzwEhxxLfPvgPaJIryWgf/GeYjnv5+R/n270W5K7LvAAAAABJRU5ErkJggg==;" vertex="1" parent="WIyWlLk6GJQsqaUBKTNV-1">
          <mxGeometry x="600" y="380" width="80" height="80" as="geometry" />
        </mxCell>
        <mxCell id="GaWV32QuYPtfHJ__NyOf-74" value="" style="shape=image;verticalLabelPosition=bottom;labelBackgroundColor=#ffffff;verticalAlign=top;aspect=fixed;imageAspect=0;image=data:image/png,iVBORw0KGgoAAAANSUhEUgAAAOEAAADhCAMAAAAJbSJIAAAA8FBMVEX///96PmXBe57PssFRKEO/d5vWqsC/dZp4O2Pdusv+/P2gX4SIUnXBep11OWG2cpVxK1ni1t6xdZb18fPTpLp5OWTNrr6tao50M15zMFy9cZfQtcNKIj3z5+2ycZRwKVjFhaWnhZvkyNZFEDVJGjrLuMTDrbvt2+TVxc9YLEmdYYFMHz2wkqXjxtTy5OvPmrSacIuCSG5sN1pAAC9wU2bi3eC+srrd0tmSZIHDo7TGj6vp0t2zmKq5hKHSwcuLWXlxQV2feJF5R2NlOFOGcH6ci5ZhPlXEusCpmqR1WWubh5OAaHdmLlDp6OlnRVtXMEqmjnKZAAAJwUlEQVR4nO3de3eaSBgH4KJFCBWrxQtgqFqjIYmNmtR4SVZqkjYm3TTf/9vsDKjxAswAAoM7vz/27DmbTXh8h2FeHOXDh1Aj3f1zG+5fiDevHUX5ota/C3EfSEjRGiWZyX1JiQdqHMwUmWGgMJUSudTRoRkLs1qOYZZCaOSOpLgPao8ZzvKWbyW06ngoxuFIKTHMthAaxcwhGHVjVb8tITCyXNKNwtSo8QzjJATh1IwW91EGSMvIb/p2hcDIFZNqbPWVbZ+dMJViuW4CjUK7ZOOzFwKj2r2M+4i9RRrb1c9ZaBpP4z5q/Eh3jIPPWZgko9QpyU4+NyE0ThLQeGidmuzIQwjBBZJ442VDdvWhhKQbBzOUDy2Exvq3uCX2KfTcxyeuEBpTBDaQw16thPbhCUGIa5KHvTyWD1sIjCQ1ybqh5NA2j0KwYCXEKEyzNefLXxAhaCDV+JtkwaZ92JsQGtl4G0ihlfXm8yqM+UaA0HZefu5NCI3FeHySH58fYYqNRejWPhyCUOrwLu1D8oWwffDpS4RQaygYy8/kCgfI9ijZwkEvUP2IF+K2D0kVAh/28jqJQn2E3z4kUah7Xn4mSgiW117ao8QJfbQPkQqloO8GtJ3uzhMhLLRH/KdJgDvl0ljes29/QqHQ7tXA6jH3SVTrPu+wSne8smfenoTCoN3o16zJnf9k3mG99X5HR+r4bI/CFmqtWVZRcstjg0I/d5GljuK/fQhROG305Xfdu9Dc2uHhDqvWwLl7HYNQ6O+87kshiCpiGguNfGi+q6uzt5/nX30LszsDa02Iu0UH490Vv7yzj2aOPz5kK2EIQTgRfT7uZ/m5o1vyFsjj45/nn+HLvmdhis0ghWHwNnTvyocs1nglXJiz5y2Rb/dmKRMrdNOtkB8fDPdSkip0Ld628uz+PGHCq3+xeatSOl5FiBN6KN6WElxF7EpJlvDqwZ9uvZTbUw9BQoziXZw0Ty5QygejwpInxDjzLprXZ483T79+NJsnxwjk2dpVhAAhjy4e0J083gyslbGkz/9eX7vXcu0qErcQWTwwMC9+Pz69bv4ZYTh/fkOMWKC8PxfjFaKKB3XPL9u6ZaTh/M/bddNNedFs/tuPS3iF4F2cXDef5zqinZEGN4/2SvDqXDf/vsz119WviFKI0oHJ5Hk+xG26gfKs+T5kga0Jaj9/Gmz9XFRC90v6MTi8339uhpi4VV6fXv5eNE/A1eTtx+PN0Lb0kQivztx4YGD9Xk2Z3gOUc33gPK5DF7oWD542Dy83r2Fu1ApXiNBd/P31FPrOnvCEbsUDU+bb8y/782bfCUcIdccOiyxzHTZ3OXH2nHCEX7+eG/cPxzDbuuYf/5OKr4Qi5JcL4Mq58fMBlhMETOlwyozAtJlwhVY+V86z9z9edq7F0SQKoflLjiLA2CYqIUeFoYUKqdAKFVJhmKFCKrRChVQYZpIgFCQpQEdJtFAaDFt3jZ7BVOqTbubo9lLzcWeASKFU0FudmZFl5Lwiyzk+VxFFluVUlU3VJ8Wjb6depAQJBUEbtsaNEVOr5RVFLvGrI8ut9gqJ8OtpAFVV67Cop5KAHL8ECIXXgd7uNEb9fA2WjN85oDXh+mGZVA4W9futS1EJEBZgzcBYdPnWCLf9XlDKqSmyhY40HOEiRAvzwYUiFVIhFVIhFVIhFVIhFVIhFVIhFVIhFVIhFVIhFVIhFVIhFVIhFVIhFVIhFVIhFVLhvoTIr6ShQuKFhz9KD194+KM06cKay6Y9PKHIEi0cGFlGsbbKehWK1m5TLlXvkiyEG7lfh61xp2fw5kbM0s7TAbeFiy3DampShJujXfeBEyFcow709t0sK9fy1mZafl0oWjBAE6290OgNwsQJ3w9LG07bjZ7R583xWzFlqXq9m/kOSubtV5EpfJfCHdKzxfZ1X59JCOfz+Af/iRIqjDRUSIVWqJAKwwwVUqEVKqTCMPM/EBpMDn4glT9IoSAV9Gp6PO7MYKspLz95eyBCQStMq+VyOZ1OV9PVKvjXcQd+Lhw01HLyhUC3wG2kCpMG0C9ikoXS5a2dbolMl7v17acrJEgoXYLTzgkHSlguTuoiu/P0iIQIpVM97ayDvC7U2T0cg3whmDKnZeeRCXXjSYrdLV40QkHSwJQ+Hfr5zosP1pSZdtEtzjz74oUuFMCsMAVHAA8P/KPqVSlot4v/27F46bHtmReBULos6Lsvfblc1TFv+MJJxa10ZvGKTmdeuELNms6djs5Sut38FcCkUnXFwTMvM6k7n3mhCiXG6IzhldclUFmwVZrrMHeddVVwP/PCFZZ4mck2xu5GcwRPC9rGn0FNKqauOkZNLOELwQ/wJZnvdcoIJeQAJaylwzpsiwfOvAnWmRe+EIaXcyNkKS0lalKxeOMuetqMVAiROTnb6yBOSox4PvMiE0IkL/NGoxxA6bYeI0FolVLJzsbIs9JOlw5UvMiEVin7I+RVZJvnfdqMT2gqwVVkhokEPwSKJwbXRSo0x6tc6nXSCKW5mGb3ULwYhFYpldFsnHYwWm0s7nqMTCGzvIrsTj1w2gw+sfgRbj8jN6iQMacexryKrI3NDEYn5Ccq+iHeLWPzOfF7EFqlVPqzO6g0x2aga55zWK6rueEW0Ue1NeOehDA5mQFXEb/rMRxfEfc55IXZ+wOBt4Qiy6l+hbCUciWU4oFwahGnfstojeVDndeFLMeJ3e/vr5N3Icb+Ul8ROS7j9ebQ8sHcCyHcG1lf15EkFLmUZ595/ON+njeFrKrWi9+0nUadDKHIiTiPcraN0Oornzm1nrm1v9lChJDjfPvMTIHO8T/GL4SP4g7CQyVuoajWPTwyPnlC4PsW9sOY4hQC323IvFiFrDqJwBefEPhOo/DFJYzOF48QtA+4y+tECj20D4kUcpyn9iFpQpFTMxH7IhWC5bWv9iEpQrj8jMEXmTBIexRUyGzfmQtBCH2RPgt0I0K779HoVRh++4A2ZvNejN6EUbQPGMZW34PRixC2D/H7zEyz2GMVX8hyUbRH2JmOMOuIK4xyeY0ZfVTDMeIJWbVLmg9muPFuQAAh8EW6vPaQQk9BGdFCzHdX4kphlpcDCaNvHzxnsPaujldhLO2Dj2gzxdnoIvTz7kpc0RolJ6Pz92L4fHclrmgd2d7oIIytPQoQqZOXbS6Q9kKOjbF98B/pjt9dzNkIYfsQ97H6jTTeaa52v70lwT4Yqb1Vxy0hQe2D7wjtjRsBG0I2kndXIkh7rblaE7Icce2D7wit1Y2AlZDQ9sF3hGnWaq4WQoLbB//RDThWoVAkvH3wH32UzwEhxxLfPvgPaJIryWgf/GeYjnv5+R/n270W5K7LvAAAAABJRU5ErkJggg==;" vertex="1" parent="WIyWlLk6GJQsqaUBKTNV-1">
          <mxGeometry x="702.5" y="370" width="115" height="115" as="geometry" />
        </mxCell>
        <mxCell id="GaWV32QuYPtfHJ__NyOf-75" value="User Pool" style="text;html=1;align=center;verticalAlign=middle;resizable=0;points=[];autosize=1;fontSize=12;" vertex="1" parent="WIyWlLk6GJQsqaUBKTNV-1">
          <mxGeometry x="592.5" y="470" width="70" height="20" as="geometry" />
        </mxCell>
        <mxCell id="GaWV32QuYPtfHJ__NyOf-76" value="AWS cognito Authorisation server" style="text;html=1;align=center;verticalAlign=middle;resizable=0;points=[];autosize=1;fontSize=12;" vertex="1" parent="WIyWlLk6GJQsqaUBKTNV-1">
          <mxGeometry x="682.5" y="490" width="190" height="20" as="geometry" />
        </mxCell>
        <mxCell id="GaWV32QuYPtfHJ__NyOf-80" value="{REST API}" style="text;html=1;align=center;verticalAlign=middle;resizable=0;points=[];autosize=1;fontSize=12;" vertex="1" parent="WIyWlLk6GJQsqaUBKTNV-1">
          <mxGeometry x="430" y="260" width="80" height="20" as="geometry" />
        </mxCell>
        <mxCell id="GaWV32QuYPtfHJ__NyOf-81" value="API Framework" style="text;html=1;align=center;verticalAlign=middle;resizable=0;points=[];autosize=1;fontSize=12;" vertex="1" parent="WIyWlLk6GJQsqaUBKTNV-1">
          <mxGeometry x="596.5400000000001" y="292.5" width="100" height="20" as="geometry" />
        </mxCell>
        <mxCell id="GaWV32QuYPtfHJ__NyOf-82" value="django" style="rounded=1;whiteSpace=wrap;html=1;fontSize=12;" vertex="1" parent="WIyWlLk6GJQsqaUBKTNV-1">
          <mxGeometry x="613.08" y="242.5" width="66.92" height="52.5" as="geometry" />
        </mxCell>
        <mxCell id="GaWV32QuYPtfHJ__NyOf-87" value="" style="endArrow=classic;html=1;fontSize=12;" edge="1" parent="WIyWlLk6GJQsqaUBKTNV-1">
          <mxGeometry width="50" height="50" relative="1" as="geometry">
            <mxPoint x="690" y="260" as="sourcePoint" />
            <mxPoint x="740" y="260" as="targetPoint" />
          </mxGeometry>
        </mxCell>
        <mxCell id="GaWV32QuYPtfHJ__NyOf-88" value="" style="endArrow=classic;html=1;fontSize=12;" edge="1" parent="WIyWlLk6GJQsqaUBKTNV-1">
          <mxGeometry width="50" height="50" relative="1" as="geometry">
            <mxPoint x="740" y="277.5" as="sourcePoint" />
            <mxPoint x="690" y="277" as="targetPoint" />
            <Array as="points">
              <mxPoint x="740" y="277" />
            </Array>
          </mxGeometry>
        </mxCell>
        <mxCell id="GaWV32QuYPtfHJ__NyOf-89" value="" style="endArrow=classic;html=1;fontSize=12;" edge="1" parent="WIyWlLk6GJQsqaUBKTNV-1">
          <mxGeometry width="50" height="50" relative="1" as="geometry">
            <mxPoint x="330" y="287" as="sourcePoint" />
            <mxPoint x="600" y="286.5" as="targetPoint" />
          </mxGeometry>
        </mxCell>
        <mxCell id="GaWV32QuYPtfHJ__NyOf-91" value="" style="endArrow=classic;startArrow=classic;html=1;fontSize=12;" edge="1" parent="WIyWlLk6GJQsqaUBKTNV-1">
          <mxGeometry width="50" height="50" relative="1" as="geometry">
            <mxPoint x="639.5" y="366.25" as="sourcePoint" />
            <mxPoint x="639.5" y="316.25" as="targetPoint" />
          </mxGeometry>
        </mxCell>
        <mxCell id="GaWV32QuYPtfHJ__NyOf-93" value="Login" style="text;html=1;align=center;verticalAlign=middle;resizable=0;points=[];autosize=1;fontSize=12;" vertex="1" parent="WIyWlLk6GJQsqaUBKTNV-1">
          <mxGeometry x="75" y="267.5" width="40" height="20" as="geometry" />
        </mxCell>
        <mxCell id="GaWV32QuYPtfHJ__NyOf-99" value="" style="shape=image;verticalLabelPosition=bottom;labelBackgroundColor=#ffffff;verticalAlign=top;aspect=fixed;imageAspect=0;image=data:image/jpeg,/9j/4AAQSkZJRgABAQAAAQABAAD/2wCEAAkGBxISEBAPEBMSFRURERYRFhUVEhAVFRYVFhgXGBUSFRUYHSggGBolGxgXITEhJSkrLi4uFyAzODMtNygtLisBCgoKDg0OGxAQGy0lICUyLTEtLS8tLS0tNTEtLS0tLy0tLS0tLS0tLTEtLS0tLS0tLS0tLS8tLi0tLS0tLS0tLf/AABEIAM4A9AMBEQACEQEDEQH/xAAbAAEAAgMBAQAAAAAAAAAAAAAABQYCAwQBB//EAEYQAAEDAgMFBQMHCQYHAAAAAAEAAgMEEQUSMQYTIUFRImFxgZEHMsEUI0KSodHhFRY1UmNyc4KxM0NidMLwNDZTg6Kys//EABsBAQACAwEBAAAAAAAAAAAAAAAFBgECBAMH/8QAMhEBAAIBAgUCBAYBBAMAAAAAAAECAwQRBRITMUEhcTJRgbEUFVKh0eHBBiIjYUNEU//aAAwDAQACEQMRAD8A+4oCAgICAgICAgICAgICAgICAgICAgICAgICAgICAgICAgICAgICAgICAgICAgICAgICAgICAgICAgICAgICAgICAgICAgICAgICAg0VsbnMIYSHagjr0XNrMeS+GYxztbxLfHNYtE2jeFYOIzaF7lRJ4praztOSUzGmwzHpDz8ozf8AUcn5trP/AKT+zP4XF+lIYNiTi/JI4nNoT16KY4NxXJfL0s1t9+0/9/Jx6vTVrXmpHZPq2I4QEBAQEBAQEBAQEBAQEBAQEBAQEBAQEBAQc9ZVCNpe7w8VzavVU02Ocl+zfHjnJblhuY8OAI0IuF70tF6xaO0tZiYnaVex+jyu3g0dr3O/FU/j+h5MnXr2t390pos29eSfCJVcd70G3EcuK2rM1mJjvDExvGy24bV7yMO56O8V9E4drI1WCL+fPugs+Lp3mHWu94iAgICAgICAgICAgICAgICAgICAgICAgIKrjlbnkyg9lnDxdzPwVH45revm6dfhr9/KZ0eDkpzT3l3bPVlwYjy4t8OYUlwDXc1Z09p9Y9Y9vk5tdh2nnj6paqgD2OY7Qj06FT2p09dRinHbtLipeaWi0KfNEWOLHatNl84z4bYclsdu8J7HeL1i0MF4t3dhFZu5OJ7LuB7uhUvwfXfhs+1vht6T/Ll1eHqU3jvC1BX5CvUBAQEBAQEBAQEBAQEBAQEBAQEBAQEBBHY3W7qM295/ZHd1Ki+Laz8NgmY7z6Q6dLh6t/8AqFSBVBlPbNsMpa4Pbq03W+DLbFkjJXvDTJSL1msrnSVAkY145j0PML6PptRXPijJXyr2Sk0tNZRW0FHcCUajg7w5FQX+oNDz069O8d/b5/R2aLNtPJKBVPSogs2CVmdmU+8zh4jkVe+C678Rh5LfFX7eJQurw9O+8dpSamnKICAgICAgICAgICAgICAgICAgICAgIOPFKMSxlvPVvcQuLX6SNThmnnx7vbT5ZxXiylkEEg6jgfFfPL0mszE94WKJiY3hkCtCYTGz9blduzo/Tud+KsPAdd08nRt2t29/7R2uw71548LI9gIIOhFlcL1i0TW3aUTE7TvCoV9MY3lvLUHqOS+dcQ0c6XPOPx49k7gy9Sm7nXC9nRQ1JjeHjwI6jmu3QaudLmjJHbz7PHPi6lJqt8bwQCOIIuF9GpeL1i1e0oKYmJ2lktmBAQEBAQEBAQEBAQEBAQEBAQEBB4UERjmLbksa3iSQ5w/w9PEqH4nxL8LNa17959v7duk0vWiZnt/lKQyhzQ5puHC481KY8lclYvXtLjtWazNZ8K5tLRZXCZujuDv3uR8/gqrx7RctuvXtPf3S3D8+8dOfohgVW0lLJrkiZid4azG644VWb2MO+kOy7x6+a+hcN1karBFp7x6T7q/qMPSvMePDVjdHnZmHvM4jvHMLm41ofxOHmr8VfX6fJvpM3TvtPaVYVDTQgndnqvgYjy4t8OYVu/0/reas6e3j1j2+SL12HaeePqnFZ0eICAgICAgICAgICAgICAgICAgINNVO2Njnu0aLn7l5ZstcWOb27Q3pSb2iseVCqqkyPdI7Vxv4dAvn2pz2z5JyW8rPixRjpFYTuy1frA4/4m/Fvx9VP8B1n/r294/zCL4jp9v+SPqsFVA2RjmO0cLfirDnw1zY5x27SjKXmlotCj1EJje5jtWm33FfO9RgtgyTjt3hY8WSMlYtDEFc8t0hg9bupBf3Xdl3wPkpThOt/DZo3+GfSf8AEuPV4epT07wtwV98IJV8ZpN3Jce6/iO48wqJxrQ/h8/NX4bese/mEzpM3UptPeHAoZ1s4ZS1wc3VpuF64c1sOSMle8Nb1i9ZrK4UlQJGNeOY9DzC+kaXUV1GKuSvlAZKTS01luXQ0EBAQEBAQEBAQEBAQEBAQEBAKCp7V4hmcIGng3i7x5DyVW45rOa0YK9o7prhun2jqz9EACq5KW2bIZS1wc02LSCD3hb48lsdovXvDzvSL1ms9n0GklLmMcRYuaCR0uF9Dw3nJjreY2mY7KresVtMQh9pqG7RM0cW8Hd7evkoTjui56daveO/t/Tv4fn5bdOfP3VoFVCUyzBWuzEwtOz9bnZkd7zPtbyPwV34Jrevh6dvir9kHrcPJfeO0uzEqUSxlvPUHoRou3iGkjVYZp58e7nwZZx3iyokWuDwI4HxXzq9Jraa27wn4mJjeBaiVwGsyv3Z0fp3O/FWHgOu6eTo27W7e/8Abg1uHevPHhYwroinqAgICAgICAgICAgICAgICAg4cXrxDE5/PRo6uOn3rk1uqjT4ZvP093vpsE5skVj6vn7nkkuJuSSSepOqoV7TaZtPeVqrWKxtD0FaCV2foN7KCR2Wdp3f0apThOj/ABGbeY/217/w4Nfn6WPaO8ruArurrx7QQQRcHgQsWiJjaWYnad1IxOjMUpZy1ae5fP8AiOknTZpp47x7LFpc3Vx7+fLlBXBLodNDVGORrxy1HUcwunR6qdNmjJH19nPnwxkpNV2ikDgHA3BFwe5fQ8d65KxevaVdtWYmYlAbQ0eVwlbo7g7x5HzVU4/oeS34ivae/v8ANJ6HNvHTn6IgFVlIvQsxMxO8NZjdbMLq95GCfeHB3j1X0PhmtjVYIt5j0n3QWoxdO+3jw7VIvEQEBAQEBAQEBAQEBAQEBAQUPaXEt7NlaexHdo7z9J3w8lTeL6vr5eWvw1+/lZOHabpY+ae8ooFRCQZMBJAHEk2A6nolazado7tLTFY3l9AwegEMTWfSPacerj92nkr3oNLGmwxTz591W1Wec2SbePDvXc5xBF4/Q72O7R2mdod/VqiuLaL8Rh3r8VfWP4dejz9LJ69pU4FUVYGQKwxKxbM12sLj3t+LfirTwDW776e3vH8IjiGDaepH1TdRCHtcx2jhb8VYc+GubHOO3aUdS80tFo8KbUQlj3Mdq02+4r5zqdPbBltjt3hYMd4yVi0MQVzN3dhVXu5AT7ruDvgVK8I1v4bPG/wz6T/Ll1WHqU9O8LWCr/HZCPVkEBAQEBAQEBAQEBAQEBBDbTYluosrT25LtHUDm7/fVRfFdZ0MO0fFPb+XdoNP1snr2juoqpazgQWLZLDs7zO4cGcG97uvkp7gmj579a3aO3uh+KajljpR3nuuAVqQT1AQeFBTtoKHdy5gOzJxHceY+PmqTxnRdDNz1+G338p3QZ+pTlnvCMBUM722GUtcHNNi03Hit8WS2K8Xr3h53pFqzWV4oaoSRteOY4joeYX0PSaiuoxRkr5VvLjnHeayjNoqK7RKNW8Hfu9fL4qG49oepj69Y9a9/b+nXoc3LbkntKvAqmpdkCsNZhZcCrM7MhPFn2t5K8cD13Xw9O3xV+yG1mHktzR2lKqdcggICAgICAgICAgICAgxkeAC4mwAuT0A5rW1orEzPZmImZ2h86xauM8rpOWjR0aNPvVF12qnUZpv48ey16TTxhxRXz5ca43U20tO6R7Y26uNh8T4WXtgw2zZIpXvLyzZYx0m8+H0ehpmxRtjbo0W+8q+4MNcOOKV7QqWXJOS82t5b16vMQEBByYnRiWNzDrqD0cNCuTW6Wupwzjn6e72wZZxXi0KK5paS1wsQbEd4Xz7JS1LTW3eFlraLREx5egrRlMbO12R+7d7r/sdy9dFOcD1vSydK3a33Ruvwc1eeO8fZanNBBB5iyuNoi0bShYnb1U3EqUxSFvI8W+C+fcS0c6bPNPHePZYNNl6tN/LnBUc9nTR1Jje145a945hdWi1U6bNXJHjv7PHNi6lJquEUgcA4aEXC+j48lclIvXtKAtE1naWa3YEBAQEBAQEBAQEBAQVna/ErNFO08XcX9zeQ8/goDjes5KdGvee/t/aW4Xpua3Vt2jt7qkFVlgegX4BZiN2JnbumcCmEDnPczM4iw7Vso58tSpbh+eulmb2rvP2Rmsx2zxFYnaE3+cn7M/X/BSv51X9H7/04Py2f1fsfnJ+zP1/wT86r+j9/wCj8tn9X7H5yfsz9f8ABPzqv6P3/o/LZ/V+x+cn7M/X/BPzqv6P3/o/LZ/V+zz85P2Z+v8Ags/nVf0fux+XT+r9k1TzB7Wvbo4XUvjyRkpFq9pR96zW01lXNqaCxE7dD2XePI/D0Va47otpjPWO/f8AlLcNz/8Ain6IEFVmYSrIFInb1hrMbrngtdvYwT7zey74HzV94XrPxOCJn4o9JV3VYOlfbxPZ5jdFvI7j3mcR39WrTi+i/E4J2j/dX1j+GdJm6d/XtKpgqgzCdZArDCe2drP7k+LfiPj6q1/6f1vfT3n/ALr/AJhFa7DtPPH1TytKOEBAQEBAQEBAQEBBorqlsUbpHaNF/HoAvHPmrhxze3aHpixzkvFI8vnFVUOke6R2rjf7gFQ82a2bJN7d5W3FjrjpFY8MoqYnXgPtWK4t+7FssR2dccYGi94rER6PCbTPdmtmBAQEBAQTezdbYmF2juLfHmFNcJ1O09G30Rmvwb/8kfVPVMDXscx2jhYqczYq5aTS3aUZS80tFo7woNXTmOR0btWn1HIr57qtPbBlnHbws+HJGWkWhgCuZ6bO/B63dShx913Zd4dfJSXDNZ+GzxM/DPpLj1eDq02jvC6gq+RO8bwryqY7RbuTMPdfx8DzCpPGtD0M3PX4bfdNaLPz05Z7wjgVBy7WyKQtIcNQbhb4slsd4vXvDS9ItExK5UNSJGNeOY4joeYX0fR6muoxRkr5+6v5cc47TWXQul5iAgICAgICAgICCo7U1ZkeIWe6w3ceRd08viqzxjPbLfo17R3903w3HWlepbvPZExQBvj1UTXHy+HfbJNm1bbS03E2lncTaTcTaTcTaTcTaTcTaTcTaTdk1xBBHAg3B71tWbVmJjvDW0RaNpXLDqsSxteNdCOhGquGlzxmxxdXs2Lp3mqM2ooMzN83Vmve38PvUVxvR9XH1a969/Z2cP1HJfkntP3VQFU+YlO+jIFY2lrOy2bM1+dm6ce0wcO9vL009FcuCazq4ulbvX7ILX4eS/NHaUjiVIJY3MOuoPQjQqR1uljU4Zxz9Pdy4cs4rxZSnAglp4EGxHQhfO8mO1LTW0esLFW0WiJh6CtNpPRLYDW5H5Cey/7HcvuU9wPW9HL0rfDb7/2j9dh5q80d4WgK6IgQEBAQEBAQEBAQY5B0HoteWPkbybsdB6BOWPkzvJux0HoE5Y+RvJux0HoE5Y+RvJux0HoE5Y+RvJux0HoE5Y+RvJux0HoE5Y+RvJux0HoE5Y+RvJux0HoE5Y+RvJux0HoE5Y+RvJux0HoE5Y+RvL0NssxGzAQs7DHdjoPQLXkr8oZ3k3Y6D0CclflBvL1rAOQ9EisR2g3ekLZh5kHQei15Kz4Z3Mg6D0WOnX5QbybsdB6LPJX5G8sgtmBAQEBAQEBAQEBAQEBAQEBAQEBAQEBAQEBAQEBAQEBAQEBAQEBAQEBBRG+0VpxP5Buvm9+acT5z/aAWIy5be/2de9BYdsMafRUklUyMS7stzNLy3sucGl1wDoSOSDqwDExVU0FS0WE0Yfa98pPvNv3G48kEJTbdQvxJ2GBjg5rnMEl25C5rcxaBrfgR5IJXarGhRUk1UW5t2BZt8uZziGtbextxKCOdte2LDY8SqmGPeNBbE05nEuvkaCQOJbx42sL9EEJDtdi8jRLFhd43DM3NLZxadDxsfsQXHAK+SenZNLC+B7i4Oif7zS1xb0FwbXHcQgkUEDtntEKCm3+TeOdI2NkebLmc46XsdGhx05IPdjdohX0wqMuRwe6N7M2bK5p0vYXuCDpzQTqAgICAgIKZ7TNoKijipn0zmtMk+7ddrXdnKTz00QT209bPDSyS0sW+lblyx8Te7gCbDibC5sOiDPDa6Q0jKioj3cm63kkf6pAuWoKJs1XYviLXVkVVDBFvS1sRiDhZtiQTa+hte/og+moCAgICAgICAgitqMWFJR1FSbXjjJbfm88GN83EIPmr9mXDZ5k4/txJ+Uc30uPO/Xd5XeIQfQKKduJYYDyqqcsd3PILXDydf0QV32S4llw+eGXgaKWQO7m8Xn0OceSCk0lOY6ekxxwOZ+KOkf8Aw3HiPrNf9ZBdPa3KZW0GHxnjV1APD9Vtm38LvB/lQd3tK2ZkqsPjhphd1O9r2suBma1jmZR32Nx4IOXBPaZB2YK5klLM0Brs7HZLjhfS7R4jzQXunnZI1skbmua4XDmkFpB5gjVBsQfPcfd8txyjoxxjoW/KpemfgWC3UHd/WKDHZo/IsbraE8I6wfKYhyzcS4D/AMx/IEEh7U8anpKWGWmeWONQ1pNmm7crzlNweYCDkxjCcXdDJVflBrHNjMrYIYbR2Avkzk3J7yEHJszU4pilKyUVcdMxpMZcyEOllc3VzrkBuv0UHTsLitW3EKzDKybf7lmdshAB+j9hDwbG9iNUHMzE8SqMUxGgp6hkbI7EOfG15iaMt92ABdxLvpFBqxupxLCHQ1MtWaunfII5GujDXNuCeGtjYGxvqLEIN3tmkDqahcOIdUgg9xY4hBaPaBXy0+HVE8DiyRgZlcADa72g8CCNCUEXUitqcJppYakRudS7yZzomPMoMdy0fqnXiOqCq+zTCa+WkZJTVohhExvEYWvvbLm7R6jggs1NjNRBjj6KokLoKmMyU4IYMp1yggXPuvHG/JBu9pGNzwtpKajeWz1c4Y0gNcQ0WDjYgjVzfIFBb4GFrWtJLiGgFxtckDi425lBsQEBAQEBB849qkrqmahwiIgOqJN4865Wi4aSOnvu/kQdLtksVMZiOKtyFmTL8kitltbLrpbgg5vZRUOgkrcJmPbppS9ne08HEDp7jv8AuIK7tbV/k+rxiEXDK+lD2AfrSODXEesxQXHG9ngNnzSW7UNK2Tv3kYEjj5kO9UFd2MqziOJ0s7uLaDD2NN9N8QWk+Zc76iD6nU1cceXePYzO7K3M5rbusTlF9TYHh3IIvaWmoZYHmt3JjDSS9xbdvex2oPggq3sS3nyKfNm3fyg7u/TK3Nbuv9t0F9ralsUckrzZsbHPcegaLn+iD5PsbgtfV/KMUgqxTOqZng3hbIXNaeFidAD2f5UGO2WDV9GabFJ6sVTqeZjR8y2MtaTexLTxBPZ/mQTHthqWy4bSysN2yTxvaerXRvIPoUF6xD/hZf4Dv/QoKn7GP0WP48n+lBx4B/zLiP8Alx/SBBp2aq449osTEj2tMjcrczgMx+bOUX1NuSDp9smIMNHHSMIfNPOzKxpBdYX42HUlrfNBye1uHd0OHMP93MxpP7sZB/ogsXtNkDsJqi0gizOIII/tGdEG/AP0LD/kB/8ANBE+xf8ARY/jyf6UGXtWoXCGDEYR85QzNk4amMkZh4XDT4XQceATNxLGZK5tzBRQMjiPIySAknxGZ4Pg1B9GQEBAQEBAQRQ2ep/lfy/ITPkyZy95Aba1g29hw7uZQSqCKbs9TirNeGETluQvD3gEWAsW3yngBy5BBqxzZakq5I5amPO6IWac728L3sQ0gEX6oJiRgcC0i4III6g6hBE7PbMUtCJBSxlm8y5rve8nLfLxcT1Pqg347gdPWRbmpZnYHZwLuBDgCA4EG4NifVBWYvZZhwcHFszgDfK6Z2X7LH7UFxo6VkTGxRNaxjBla1oAAHQBBrxTD46iF8EwJZIMrgHOaSL3tdpvyQMLw6OnhZTwtyxxizRcnnfU8TxKDzFcOiqYX087c0cgs4XI0NxYjiDcBBG1WyNJJSxUT43GGE5mN3ktweNu1e5946lBMyQNcwxn3S0sIudCLEX8EHFgWCwUcW4pmlrMxdYuc7ideLiTyQYU2AU8dVLXMYRNK3I92d5BHZFspNh7rdByQfPsLweCrxzF4amNsjMoIBuCD832mkcQe8ILfgmwlDSyiaKImQe6573PLe9t+APfqgl8bwaCriMFSwPYSHWuQQRo5rhxBQcUWydI2jdh4jO4cblueS5OYOvmvfUDmgkafDo2QNpWAiNse6DbuPYta1zx05oNOBYLBRxbimaWszF1i5zuJtfi4k8kEDtztXSQ01XA98b5t0Y9xe7iZG8A4chZwN+iDd7NcDNJh8THi0kvz0gIsQ59rNI5ENDR4goLSgICAgICAgICAgICAgICAgICAgICAgIOeKhibI6VscbXv954Y0Pd+84C50GvRB0ICAgICCPlwSmdN8odBCZRY7wxsL7gWBzWvcDmgkEBAQEBAQEBAQEBAQEBAQEBAQEBAQEBAQEBAQEBAQEBAQEBAQEBAQEBAQEBAQEBAQEBAQEBAQEBAQEBAQEBAQEBAQEH/9k=;" vertex="1" parent="WIyWlLk6GJQsqaUBKTNV-1">
          <mxGeometry x="252.5" y="228.75" width="68.11" height="57.5" as="geometry" />
        </mxCell>
      </root>
    </mxGraphModel>
  </diagram>
</mxfile>
